<svg width="240.000000" height="89.050781" viewBox="0 0 240 89.0508" fill="none" xmlns="http://www.w3.org/2000/svg" xmlns:xlink="http://www.w3.org/1999/xlink">
	<desc>
			Created with Pixso.
	</desc>
	<defs/>
	<path id="Форма 5" d="M118.44 89.05C117.04 89.05 115.68 88.7 114.35 88C113.01 87.3 112.06 86.16 111.49 84.58C111.42 84.39 111.49 84.25 111.67 84.14C111.86 84.05 112.01 84.16 112.14 84.49C112.77 85.7 113.58 86.58 114.55 87.14C115.55 87.71 116.59 88 117.67 88C117.92 88 118.18 87.98 118.46 87.95C118.76 87.92 119.04 87.87 119.3 87.81C121.45 87.3 123.15 86.03 124.39 84C125.63 81.97 126.52 79.59 127.04 76.86C127.59 74.13 127.92 71.39 128.04 68.63C128.18 65.87 128.21 63.5 128.14 61.53C126.37 62.54 124.55 63.43 122.67 64.21C120.8 64.97 118.84 65.59 116.81 66.09C115.87 66.35 114.77 66.56 113.53 66.72C112.29 66.87 110.97 66.95 109.58 66.95C107.1 66.95 104.66 66.49 102.28 65.58C99.9 64.65 98.27 62.88 97.37 60.28C97.12 59.66 96.96 59.01 96.9 58.35C96.84 57.66 96.81 57.01 96.81 56.39C96.81 54.55 97.08 52.75 97.62 51C98.17 49.25 98.75 47.67 99.37 46.28C97.91 45.39 96.62 44.31 95.51 43.04C94.41 41.77 93.57 40.31 93 38.67C92.75 37.91 92.55 37.15 92.41 36.39C92.29 35.62 92.23 34.88 92.23 34.18C92.23 31.33 93.02 28.72 94.6 26.34C96.2 23.96 98.17 21.94 100.51 20.3C102.86 18.64 105.19 17.55 107.48 17.04C107.73 16.98 108.31 16.89 109.23 16.76C110.16 16.62 111.04 16.55 111.86 16.55C112.88 16.55 113.42 16.69 113.49 16.95C113.61 17.2 113.51 17.32 113.18 17.32C112.3 17.32 111.45 17.32 110.62 17.32C109.8 17.32 108.94 17.41 108.04 17.6C105.89 18.11 103.78 19.12 101.72 20.62C99.65 22.11 97.94 23.93 96.58 26.09C95.21 28.24 94.53 30.62 94.53 33.23C94.53 33.93 94.59 34.64 94.72 35.37C94.84 36.1 95.03 36.85 95.27 37.62C96.24 40.29 97.96 42.48 100.44 44.18C102.53 40.18 104.84 36.68 107.37 33.67C109.91 30.65 112.58 27.76 115.37 25C118.18 22.24 121 19.3 123.86 16.18C123.86 15.61 123.84 15 123.81 14.37C123.78 13.73 123.76 13.1 123.76 12.46C123.76 10.94 123.84 9.41 124 7.86C124.17 6.29 124.5 4.94 125 3.81C125.38 2.97 125.88 2.13 126.49 1.27C127.09 0.42 127.87 0 128.81 0C129.45 0 129.98 0.2 130.42 0.62C130.87 1.03 131.22 1.54 131.49 2.18C131.73 2.75 131.86 3.45 131.86 4.27C131.86 5.67 131.49 7.06 130.77 8.46C130.04 9.86 129.19 11.14 128.23 12.32C127.28 13.5 126.43 14.53 125.67 15.41C125.67 18.02 125.87 20.67 126.28 23.37C126.7 26.07 127.1 28.72 127.49 31.32C128.94 29.49 130.67 27.77 132.67 26.16C134.67 24.53 136.85 23.43 139.21 22.86C139.97 22.66 140.79 22.55 141.67 22.55C142.94 22.55 144.17 22.86 145.35 23.46C146.53 24.07 147.39 25.2 147.95 26.86C148.34 28 148.53 29.28 148.53 30.67C148.53 32.31 148.31 34.01 147.86 35.76C147.42 37.5 146.98 39 146.53 40.28C145.08 44.21 143.08 47.76 140.53 50.9C137.99 54.05 135.04 56.73 131.67 58.95C131.73 59.97 131.8 61.03 131.86 62.11C131.92 63.18 131.95 64.26 131.95 65.35C131.95 68.65 131.65 71.97 131.04 75.3C130.44 78.63 129.35 81.52 127.76 83.95C126.18 86.4 123.83 88.01 120.72 88.77C120.08 88.95 119.32 89.05 118.44 89.05ZM125.67 14.09C126.12 13.58 126.71 12.7 127.44 11.46C128.17 10.22 128.82 8.9 129.39 7.51C129.97 6.11 130.25 4.97 130.25 4.09C130.25 3.7 130.21 3.44 130.14 3.32C130.08 3.13 129.98 2.95 129.86 2.76C129.73 2.56 129.55 2.46 129.3 2.46C128.91 2.46 128.51 2.73 128.09 3.27C127.69 3.82 127.42 4.27 127.3 4.65C126.73 5.86 126.32 7.4 126.09 9.27C125.87 11.15 125.73 12.75 125.67 14.09ZM106.9 46.28C109 46.28 111.01 45.79 112.95 44.81C114.89 43.82 116.68 42.59 118.32 41.14C119.98 39.68 121.43 38.27 122.67 36.9C123.91 35.54 124.85 34.48 125.49 33.72C125.16 30.99 124.85 28.28 124.56 25.58C124.28 22.86 124.04 20.14 123.86 17.41C122.34 19.07 120.78 20.7 119.18 22.3C117.6 23.88 116.08 25.52 114.62 27.23C112.97 29.14 111.42 31.15 110 33.28C108.57 35.4 107.25 37.61 106.04 39.9C105.53 40.79 105.05 41.71 104.6 42.67C104.17 43.62 103.72 44.6 103.28 45.62C104.42 46.06 105.63 46.28 106.9 46.28ZM131.39 57.53C134.37 55.63 136.98 53.38 139.23 50.81C141.49 48.24 143.26 45.21 144.53 41.72C145.11 40.12 145.52 38.67 145.77 37.37C146.03 36.07 146.16 34.88 146.16 33.81C146.16 31.27 145.56 29.36 144.35 28.09C143.14 26.82 141.58 26.18 139.67 26.18C137.95 26.18 136.04 26.71 133.95 27.76C131.86 28.8 129.77 30.37 127.67 32.46C128.31 36.66 129.02 40.86 129.81 45.04C130.6 49.23 131.13 53.39 131.39 57.53ZM113.09 64.18C114.18 64.18 115.24 64.11 116.28 63.95C117.33 63.8 118.27 63.63 119.09 63.44C122.27 62.66 125.22 61.52 127.95 60C127.89 55.81 127.62 51.61 127.14 47.39C126.67 43.16 126.18 38.92 125.67 34.67C124.97 35.87 123.99 37.25 122.72 38.81C121.45 40.36 119.95 41.85 118.23 43.28C116.52 44.7 114.67 45.9 112.67 46.86C110.67 47.8 108.59 48.28 106.44 48.28C105.17 48.28 103.9 48.09 102.62 47.72C102.36 48.6 102.12 49.59 101.9 50.67C101.69 51.74 101.58 52.82 101.58 53.9C101.58 55.24 101.76 56.57 102.14 57.9C103.03 60.32 104.55 61.97 106.67 62.86C108.79 63.74 110.93 64.18 113.09 64.18Z" fill="#FFA55C" fill-opacity="1.000000" fill-rule="nonzero"/>
	<path id="Форма 5" d="M10.56 68.2C9.28 68.2 8.16 67.72 7.22 66.77C6.27 65.83 5.6 64.29 5.2 62.18C5.15 62.01 5.13 61.81 5.13 61.58C5.13 61.33 5.13 61.08 5.13 60.83C5.13 59.77 5.22 58.43 5.42 56.8C5.62 55.18 5.87 53.39 6.16 51.44C6.47 49.48 6.75 47.47 7.02 45.4C7.3 43.32 7.53 41.29 7.73 39.3C7.93 37.31 8.04 35.5 8.04 33.87C8.04 31.84 7.84 30.2 7.44 28.95C7.04 27.7 6.31 27.07 5.27 27.07C4.63 27.07 4 27.31 3.38 27.78C2.76 28.24 2.21 28.75 1.74 29.32C1.27 29.87 0.89 30.32 0.61 30.66C0.35 30.99 0.19 31.05 0.14 30.82C0.09 30.7 0.06 30.58 0.03 30.47C0.01 30.35 0 30.23 0 30.1C0 29.49 0.21 28.85 0.65 28.18C1.1 27.5 1.72 26.93 2.51 26.47C3.31 26 4.2 25.77 5.2 25.77C5.4 25.77 5.58 25.77 5.73 25.79C5.87 25.8 6.02 25.83 6.18 25.87C8.11 26.19 9.42 27.22 10.11 28.95C10.81 30.68 11.17 32.78 11.17 35.25C11.17 37.12 11.03 39.09 10.75 41.18C10.48 43.26 10.18 45.36 9.86 47.47C9.54 49.57 9.24 51.57 8.96 53.47C8.7 55.35 8.56 57.02 8.56 58.47C8.56 58.89 8.58 59.28 8.6 59.65C8.62 60.02 8.66 60.36 8.71 60.68C9.11 62.71 9.66 64.12 10.35 64.94C11.04 65.76 11.83 66.17 12.73 66.17C13.72 66.17 14.76 65.82 15.82 65.12C16.89 64.41 17.94 63.53 18.99 62.47C20.03 61.41 20.98 60.34 21.83 59.29C22.97 57.91 24.01 56.29 24.95 54.43C25.9 52.56 26.76 50.67 27.52 48.74C28.3 46.81 28.9 45.05 29.34 43.45C28.84 42.9 28.54 42.34 28.45 41.77C28.35 41.19 28.3 40.45 28.3 39.54C28.3 38.58 28.58 37.83 29.12 37.29C29.67 36.74 30.24 36.46 30.83 36.46C31.73 36.46 32.33 36.95 32.63 37.91C33.18 39.51 33.72 41.2 34.27 42.99C34.82 44.77 35.42 46.51 36.09 48.21C36.76 49.91 37.54 51.49 38.44 52.94C40.28 55.79 41.97 57.83 43.51 59.07C45.05 60.3 46.46 60.92 47.75 60.92C49.1 60.92 50.28 60.37 51.3 59.26C52.32 58.16 53.17 56.7 53.86 54.89C54.55 53.07 55.08 51.09 55.43 48.96C55.78 46.82 55.95 44.73 55.95 42.67C55.95 40.97 55.84 39.38 55.61 37.91C55.39 36.43 55.01 35.22 54.46 34.29C54.26 33.91 54.1 33.51 54.01 33.09C53.91 32.67 53.86 32.29 53.86 31.94C53.86 31.48 53.95 31.1 54.12 30.77C54.3 30.45 54.56 30.29 54.9 30.29C55.3 30.29 55.7 30.49 56.1 30.88C56.65 31.33 57.16 31.95 57.63 32.74C58.1 33.52 58.51 34.2 58.85 34.77C59.25 35.41 59.77 36.19 60.41 37.11C61.07 38.03 61.75 38.86 62.47 39.62C63.18 40.37 63.89 40.83 64.6 40.99C64.69 41.02 64.74 41.08 64.74 41.18C64.74 41.37 64.52 41.54 64.07 41.66C63.62 41.79 63.3 41.83 63.1 41.8C61.96 41.45 61.01 41.07 60.23 40.67C59.47 40.27 58.59 39.53 57.59 38.44C57.64 39.01 57.66 39.6 57.66 40.19C57.66 40.79 57.66 41.37 57.66 41.96C57.66 43.62 57.57 45.29 57.39 46.96C57.22 48.63 56.89 50.32 56.39 52.02C55.3 55.71 53.92 58.34 52.26 59.92C50.6 61.49 48.85 62.27 47 62.27C45.51 62.27 44.03 61.85 42.56 61C41.11 60.15 39.76 59.01 38.51 57.6C37.27 56.19 36.2 54.62 35.31 52.88C34.52 51.21 33.84 49.68 33.29 48.28C32.74 46.89 32.32 45.66 32.03 44.6C31.23 46.91 30.19 49.21 28.92 51.49C27.66 53.76 26.26 55.9 24.72 57.91C23.18 59.92 21.58 61.69 19.92 63.24C18.25 64.78 16.62 65.99 15 66.87C13.39 67.75 11.91 68.2 10.56 68.2Z" fill="#FFF9F4" fill-opacity="1.000000" fill-rule="nonzero"/>
	<path id="Форма 5" d="M64.07 62.32C63.18 62.32 62.53 62.07 62.13 61.58C61.74 61.08 61.54 60.49 61.54 59.81C61.54 58.95 61.78 57.95 62.24 56.79C62.71 55.63 63.34 54.43 64.13 53.2C64.93 51.96 65.84 50.82 66.86 49.77C67.88 48.73 68.96 47.88 70.1 47.22C71.25 46.56 72.37 46.23 73.46 46.23C74.46 46.23 75.31 46.52 76.03 47.08C76.75 47.65 77.12 48.28 77.12 48.99C77.12 49.4 77.01 49.75 76.81 50.02C76.61 50.29 76.39 50.43 76.13 50.43C75.94 50.43 75.77 50.33 75.63 50.14C75.13 49.4 74.59 48.87 74.02 48.55C73.45 48.23 72.87 48.07 72.26 48.07C71.27 48.07 70.28 48.43 69.31 49.15C68.35 49.87 67.58 50.7 66.98 51.63C66.49 52.34 66.03 53.18 65.6 54.16C65.18 55.14 64.83 56.1 64.55 57.05C64.28 58 64.15 58.78 64.15 59.38C64.15 60.48 64.54 61.03 65.33 61.03C66.32 61.03 67.59 60.32 69.13 58.9C70.28 57.87 71.31 56.68 72.22 55.33C73.15 53.99 73.93 52.81 74.57 51.82C74.83 51.5 75.1 51.29 75.39 51.2C75.69 51.1 75.97 51.06 76.23 51.06C76.82 51.06 77.2 51.22 77.37 51.54C77.54 51.86 77.63 52.13 77.63 52.35C77.63 53.19 77.5 53.94 77.24 54.59C77 55.25 76.88 56.05 76.88 56.98C76.88 57.66 76.97 58.27 77.14 58.84C77.32 59.4 77.63 59.67 78.08 59.67C78.63 59.67 79.32 59.22 80.17 58.32C80.37 58.06 80.66 57.93 81.06 57.93C81.51 57.93 81.74 58.08 81.74 58.37C81.74 58.79 81.29 59.23 80.39 59.7C79.49 60.16 78.6 60.39 77.7 60.39C76.51 60.39 75.67 60.07 75.17 59.43C74.33 58.37 73.92 57.42 73.92 56.57C73.92 55.71 73.89 55.13 73.82 54.81C73.58 55.19 73.11 55.79 72.41 56.62C71.71 57.43 70.9 58.28 69.95 59.17C69.02 60.05 68.03 60.8 66.98 61.41C65.94 62.02 64.97 62.32 64.07 62.32Z" fill="#FFF9F4" fill-opacity="1.000000" fill-rule="nonzero"/>
	<path id="Форма 5" d="M77.63 69.69C77.13 69.69 76.73 69.59 76.41 69.4C76.08 69.21 76.04 68.99 76.28 68.73C76.99 68.05 77.65 67.1 78.27 65.86C78.89 64.63 79.43 63.34 79.91 61.99C80.38 60.64 80.77 59.41 81.09 58.31C81.42 57.2 81.65 56.42 81.8 55.97C80.91 55.42 80.47 54.81 80.47 54.14C80.47 53.62 80.65 53.18 81.01 52.83C81.39 52.48 81.68 52.32 81.89 52.35C81.99 52.35 82.12 52.38 82.29 52.43C82.46 52.48 82.54 52.53 82.54 52.6C82.85 51.08 83.09 49.58 83.29 48.09C83.5 46.6 83.6 45.22 83.6 43.98C83.6 42.95 83.52 42.04 83.36 41.24C83.22 40.43 83 39.78 82.71 39.3C82.4 38.82 82.25 38.45 82.25 38.19C82.25 37.84 82.4 37.66 82.71 37.66C83.05 37.66 83.32 37.81 83.53 38.1C84.07 38.8 84.48 39.91 84.74 41.43C85.02 42.93 85.16 44.65 85.16 46.58C85.16 47.89 85.11 49.28 85 50.75C84.9 52.21 84.73 53.66 84.49 55.1C85.39 54.58 86.3 54.08 87.24 53.58C88.18 53.08 89.01 52.56 89.71 52.02L89.71 51.97C89.71 51.9 89.67 51.83 89.58 51.77C89.51 51.71 89.47 51.62 89.47 51.49C89.47 51.26 89.72 50.99 90.22 50.67C90.72 50.35 91.37 49.89 92.18 49.29C93.01 48.7 93.87 48.15 94.77 47.66C95.67 47.16 96.48 46.93 97.22 46.96C97.82 46.96 98.12 47.09 98.12 47.34C98.12 47.63 97.69 48.07 96.84 48.65C96.01 49.22 95 49.84 93.84 50.48C92.68 51.12 91.61 51.71 90.64 52.24C89.67 52.77 89.03 53.12 88.73 53.31L85.91 55.33L84.42 56.35C85.06 57.4 85.8 58.45 86.64 59.49C87.49 60.51 88.44 61.36 89.51 62.04C90.58 62.71 91.69 63.05 92.84 63.05C94.03 63.05 95.24 62.58 96.48 61.65C97.33 60.97 98.05 60.22 98.64 59.39C99.24 58.55 99.73 57.93 100.14 57.51C100.39 57.19 100.64 56.97 100.88 56.86C101.14 56.75 101.34 56.69 101.48 56.69C101.82 56.69 101.94 56.85 101.85 57.17C101.65 57.58 101.31 58.11 100.81 58.76C100.31 59.4 99.83 60 99.35 60.57C98.88 61.12 98.52 61.52 98.28 61.74C97.33 62.64 96.39 63.3 95.44 63.72C94.5 64.13 93.57 64.34 92.68 64.34C91.54 64.34 90.42 64.07 89.33 63.52C88.24 62.98 87.23 62.28 86.31 61.41C85.39 60.54 84.56 59.63 83.82 58.66C83.27 61.1 82.6 63.29 81.8 65.23C81.01 67.18 80.14 68.52 79.2 69.25C78.75 69.54 78.23 69.69 77.63 69.69Z" fill="#FFF9F4" fill-opacity="1.000000" fill-rule="nonzero"/>
	<path id="Форма 5" d="M106.99 63.33C105.21 63.33 103.66 62.65 102.33 61.28C101.01 59.92 100.35 57.76 100.35 54.81C100.35 52.88 100.72 51.33 101.46 50.16C102.21 48.99 103.13 48.13 104.23 47.59C105.33 47.04 106.38 46.76 107.37 46.76C108.36 46.76 109.19 46.98 109.88 47.42C110.59 47.85 110.94 48.47 110.94 49.27C110.94 50.04 110.59 50.86 109.88 51.71C109.19 52.56 108.36 53.33 107.39 54.02C106.43 54.71 105.48 55.16 104.54 55.38C104.33 55.45 104.08 55.49 103.79 55.49C103.6 55.49 103.5 55.44 103.5 55.33C103.5 55.08 103.89 54.8 104.68 54.48C105.68 54.02 106.62 53.34 107.5 52.43C108.4 51.51 108.85 50.7 108.85 50C108.85 49.57 108.7 49.25 108.39 49.01C108.1 48.77 107.76 48.65 107.37 48.65C106.62 48.65 105.81 49.02 104.94 49.77C104.07 50.53 103.44 51.82 103.04 53.65C102.95 54.16 102.86 54.65 102.77 55.12C102.7 55.59 102.66 56.04 102.66 56.5C102.66 58.29 103.09 59.7 103.94 60.71C104.78 61.72 105.9 62.22 107.28 62.22C108.48 62.22 109.82 61.77 111.3 60.86C112.79 59.94 114.26 58.51 115.71 56.55C116.06 56.03 116.46 55.77 116.91 55.77C117.2 55.77 117.34 55.9 117.34 56.16C117.34 56.38 117.25 56.62 117.05 56.87C115.77 58.94 114.2 60.53 112.36 61.65C110.51 62.77 108.73 63.33 106.99 63.33Z" fill="#FFF9F4" fill-opacity="1.000000" fill-rule="nonzero"/>
	<path id="Форма 5" d="M155.66 80.77C153.36 80.77 151.16 80.15 149.05 78.93C146.94 77.72 145.18 75.95 143.76 73.64C142.35 71.33 141.52 68.53 141.27 65.26C139.73 65.35 138.31 65.4 137.03 65.4C134.14 65.4 132.04 65.16 130.71 64.67C129.4 64.19 128.75 63.57 128.75 62.8C128.75 62.03 129.32 61.18 130.46 60.25C131.6 59.32 133.19 58.38 135.23 57.44C137.26 56.49 139.65 55.63 142.39 54.85C143.33 51.58 144.85 48.05 146.96 44.25C149.08 40.44 151.93 36.4 155.51 32.13C155.85 31.71 156.37 31.5 157.07 31.5C157.51 31.5 157.91 31.6 158.26 31.8C158.61 31.99 158.78 32.24 158.78 32.56C158.78 32.72 158.71 32.93 158.55 33.18C155.37 37.33 152.73 41.13 150.62 44.58C148.51 48.03 146.86 51.18 145.67 54.04C147.9 53.49 150.28 53.04 152.82 52.69C155.35 52.34 157.94 52.13 160.57 52.07C161.26 52.07 161.6 52.13 161.6 52.25C161.6 52.39 161.37 52.51 160.89 52.62C160.43 52.73 159.65 52.8 158.55 52.83C156.12 52.93 153.8 53.15 151.58 53.49C149.37 53.83 147.3 54.23 145.36 54.71C144.62 56.58 144.05 58.31 143.65 59.9C143.26 61.48 143.01 62.95 142.9 64.29C148.02 63.59 152.68 62.55 156.87 61.19C161.07 59.83 164.78 58.25 168.01 56.45C171.25 54.65 173.96 52.78 176.14 50.86C177.53 49.64 178.54 48.56 179.16 47.61C179.78 46.66 180.09 45.83 180.09 45.13C180.09 44.1 179.59 43.29 178.6 42.7C177.6 42.1 176.29 41.67 174.65 41.4C173.01 41.13 171.22 40.99 169.28 40.99C167.24 40.99 165.18 41.11 163.1 41.36C161.01 41.59 159.12 41.92 157.44 42.33C157.04 42.4 156.77 42.44 156.62 42.44C155.98 42.44 155.66 42.29 155.66 42C155.66 41.71 155.93 41.49 156.47 41.32C162.59 39.08 166.93 37.04 169.52 35.22C172.1 33.38 173.39 31.84 173.39 30.59C173.39 29.5 172.61 28.65 171.05 28.06C169.48 27.46 167.43 27.16 164.9 27.16C162.91 27.16 160.67 27.38 158.18 27.8C155.7 28.21 153.14 28.88 150.51 29.81C148.32 30.59 146.35 31.5 144.58 32.54C142.82 33.58 141.33 34.66 140.1 35.77C138.89 36.88 137.98 37.92 137.39 38.9C136.8 39.87 136.57 40.69 136.72 41.37C136.72 41.44 136.73 41.51 136.75 41.59C136.78 41.67 136.79 41.74 136.79 41.8C136.79 42.61 136.42 43.01 135.68 43.01C135.33 43.01 134.96 42.85 134.59 42.53C134.23 42.21 134.04 41.73 134.04 41.08C134.04 40.12 134.5 39.09 135.41 38C136.33 36.91 137.57 35.81 139.14 34.7C140.7 33.6 142.45 32.55 144.39 31.57C146.34 30.59 148.35 29.75 150.43 29.05C153.11 28.11 155.76 27.42 158.37 26.98C160.97 26.52 163.38 26.29 165.57 26.29C168.59 26.29 171.05 26.68 172.94 27.46C174.83 28.23 175.78 29.3 175.78 30.68C175.78 31.97 174.81 33.46 172.87 35.16C170.93 36.86 167.67 38.74 163.1 40.79C164.64 40.63 166.07 40.52 167.41 40.44C168.75 40.35 170 40.31 171.16 40.31C175.42 40.31 178.51 40.77 180.42 41.68C182.33 42.6 183.29 43.78 183.29 45.22C183.29 46.28 182.83 47.43 181.91 48.67C181 49.91 179.72 51.18 178.09 52.5C175.7 54.39 172.7 56.22 169.1 57.99C165.5 59.76 161.47 61.28 157.02 62.57C152.58 63.85 147.85 64.72 142.83 65.16C142.73 68.02 143.14 70.38 144.07 72.24C144.99 74.11 146.17 75.56 147.6 76.6C149.04 77.65 150.48 78.38 151.93 78.81C153.37 79.25 154.56 79.46 155.51 79.46C156.2 79.46 156.67 79.38 156.91 79.23C157.12 79.06 157.42 78.98 157.82 78.98C158.21 78.98 158.58 79.08 158.93 79.27C159.28 79.47 159.46 79.68 159.46 79.9C159.46 80.09 159.28 80.24 158.93 80.33C157.84 80.62 156.75 80.77 155.66 80.77ZM137.32 64.78C137.86 64.78 138.46 64.75 139.1 64.71C139.75 64.66 140.45 64.6 141.19 64.54C141.14 63.19 141.19 61.78 141.34 60.31C141.5 58.83 141.77 57.28 142.16 55.68C138.98 56.73 136.47 57.91 134.63 59.21C132.79 60.52 131.88 61.66 131.88 62.66C131.88 63.27 132.33 63.78 133.22 64.18C134.12 64.58 135.49 64.78 137.32 64.78Z" fill="#FFF9F4" fill-opacity="1.000000" fill-rule="nonzero"/>
	<path id="Форма 5" d="M186.73 62.32C185.83 62.32 185.18 62.07 184.78 61.58C184.39 61.08 184.2 60.49 184.2 59.81C184.2 58.95 184.43 57.95 184.89 56.79C185.36 55.63 185.99 54.43 186.78 53.2C187.58 51.96 188.49 50.82 189.51 49.77C190.53 48.73 191.61 47.88 192.75 47.22C193.9 46.56 195.02 46.23 196.11 46.23C197.11 46.23 197.96 46.52 198.68 47.08C199.41 47.65 199.77 48.28 199.77 48.99C199.77 49.4 199.67 49.75 199.46 50.02C199.27 50.29 199.04 50.43 198.79 50.43C198.59 50.43 198.42 50.33 198.28 50.14C197.78 49.4 197.25 48.87 196.68 48.55C196.11 48.23 195.52 48.07 194.91 48.07C193.92 48.07 192.94 48.43 191.97 49.15C191.01 49.87 190.23 50.7 189.64 51.63C189.14 52.34 188.68 53.18 188.25 54.16C187.83 55.14 187.48 56.1 187.2 57.05C186.93 58 186.8 58.78 186.8 59.38C186.8 60.48 187.19 61.03 187.98 61.03C188.98 61.03 190.24 60.32 191.78 58.9C192.94 57.87 193.97 56.68 194.88 55.33C195.8 53.99 196.58 52.81 197.22 51.82C197.48 51.5 197.75 51.29 198.04 51.2C198.35 51.1 198.62 51.06 198.88 51.06C199.47 51.06 199.86 51.22 200.03 51.54C200.19 51.86 200.28 52.13 200.28 52.35C200.28 53.19 200.15 53.94 199.9 54.59C199.66 55.25 199.53 56.05 199.53 56.98C199.53 57.66 199.62 58.27 199.79 58.84C199.97 59.4 200.29 59.67 200.73 59.67C201.28 59.67 201.98 59.22 202.83 58.32C203.02 58.06 203.32 57.93 203.72 57.93C204.17 57.93 204.39 58.08 204.39 58.37C204.39 58.79 203.94 59.23 203.04 59.7C202.15 60.16 201.25 60.39 200.35 60.39C199.16 60.39 198.32 60.07 197.82 59.43C196.99 58.37 196.57 57.42 196.57 56.57C196.57 55.71 196.54 55.13 196.48 54.81C196.24 55.19 195.76 55.79 195.06 56.62C194.37 57.43 193.55 58.28 192.6 59.17C191.67 60.05 190.68 60.8 189.64 61.41C188.59 62.02 187.62 62.32 186.73 62.32Z" fill="#FFF9F4" fill-opacity="1.000000" fill-rule="nonzero"/>
	<path id="Форма 5" d="M200.28 69.69C199.79 69.69 199.38 69.59 199.07 69.4C198.74 69.21 198.7 68.99 198.94 68.73C199.64 68.05 200.3 67.1 200.92 65.86C201.54 64.63 202.09 63.34 202.56 61.99C203.03 60.64 203.43 59.41 203.74 58.31C204.07 57.2 204.3 56.42 204.45 55.97C203.56 55.42 203.12 54.81 203.12 54.14C203.12 53.62 203.3 53.18 203.67 52.83C204.04 52.48 204.34 52.32 204.54 52.35C204.64 52.35 204.77 52.38 204.94 52.43C205.11 52.48 205.2 52.53 205.2 52.6C205.5 51.08 205.75 49.58 205.94 48.09C206.15 46.6 206.25 45.22 206.25 43.98C206.25 42.95 206.17 42.04 206.01 41.24C205.87 40.43 205.65 39.78 205.36 39.3C205.06 38.82 204.91 38.45 204.91 38.19C204.91 37.84 205.06 37.66 205.36 37.66C205.7 37.66 205.97 37.81 206.18 38.1C206.72 38.8 207.13 39.91 207.4 41.43C207.68 42.93 207.82 44.65 207.82 46.58C207.82 47.89 207.76 49.28 207.65 50.75C207.56 52.21 207.39 53.66 207.14 55.1C208.04 54.58 208.96 54.08 209.89 53.58C210.84 53.08 211.66 52.56 212.36 52.02L212.36 51.97C212.36 51.9 212.32 51.83 212.24 51.77C212.16 51.71 212.13 51.62 212.13 51.49C212.13 51.26 212.38 50.99 212.87 50.67C213.37 50.35 214.03 49.89 214.84 49.29C215.66 48.7 216.52 48.15 217.42 47.66C218.32 47.16 219.14 46.93 219.88 46.96C220.47 46.96 220.77 47.09 220.77 47.34C220.77 47.63 220.34 48.07 219.5 48.65C218.66 49.22 217.66 49.84 216.49 50.48C215.33 51.12 214.26 51.71 213.29 52.24C212.32 52.77 211.68 53.12 211.38 53.31L208.56 55.33L207.07 56.35C207.71 57.4 208.45 58.45 209.29 59.49C210.14 60.51 211.1 61.36 212.16 62.04C213.23 62.71 214.34 63.05 215.49 63.05C216.68 63.05 217.89 62.58 219.13 61.65C219.98 60.97 220.7 60.22 221.3 59.39C221.89 58.55 222.39 57.93 222.79 57.51C223.04 57.19 223.29 56.97 223.53 56.86C223.79 56.75 223.99 56.69 224.13 56.69C224.47 56.69 224.6 56.85 224.5 57.17C224.3 57.58 223.96 58.11 223.46 58.76C222.96 59.4 222.48 60 222.01 60.57C221.53 61.12 221.18 61.52 220.93 61.74C219.99 62.64 219.04 63.3 218.09 63.72C217.15 64.13 216.23 64.34 215.33 64.34C214.19 64.34 213.07 64.07 211.98 63.52C210.89 62.98 209.88 62.28 208.96 61.41C208.04 60.54 207.21 59.63 206.47 58.66C205.92 61.1 205.25 63.29 204.45 65.23C203.66 67.18 202.79 68.52 201.85 69.25C201.4 69.54 200.88 69.69 200.28 69.69Z" fill="#FFF9F4" fill-opacity="1.000000" fill-rule="nonzero"/>
	<path id="Форма 5" d="M229.64 63.33C227.86 63.33 226.31 62.65 224.99 61.28C223.66 59.92 223 57.76 223 54.81C223 52.88 223.37 51.33 224.11 50.16C224.87 48.99 225.79 48.13 226.88 47.59C227.98 47.04 229.03 46.76 230.03 46.76C231.01 46.76 231.85 46.98 232.54 47.42C233.24 47.85 233.59 48.47 233.59 49.27C233.59 50.04 233.24 50.86 232.54 51.71C231.85 52.56 231.01 53.33 230.04 54.02C229.09 54.71 228.13 55.16 227.19 55.38C226.98 55.45 226.73 55.49 226.44 55.49C226.25 55.49 226.15 55.44 226.15 55.33C226.15 55.08 226.55 54.8 227.33 54.48C228.33 54.02 229.27 53.34 230.15 52.43C231.05 51.51 231.5 50.7 231.5 50C231.5 49.57 231.35 49.25 231.04 49.01C230.75 48.77 230.41 48.65 230.03 48.65C229.27 48.65 228.46 49.02 227.59 49.77C226.73 50.53 226.1 51.82 225.7 53.65C225.6 54.16 225.51 54.65 225.42 55.12C225.35 55.59 225.31 56.04 225.31 56.5C225.31 58.29 225.74 59.7 226.59 60.71C227.44 61.72 228.55 62.22 229.94 62.22C231.14 62.22 232.48 61.77 233.96 60.86C235.45 59.94 236.91 58.51 238.36 56.55C238.71 56.03 239.11 55.77 239.56 55.77C239.85 55.77 240 55.9 240 56.16C240 56.38 239.9 56.62 239.7 56.87C238.42 58.94 236.85 60.53 235.01 61.65C233.17 62.77 231.38 63.33 229.64 63.33Z" fill="#FFF9F4" fill-opacity="1.000000" fill-rule="nonzero"/>
</svg>
