<svg width="241.000000" height="89.050781" viewBox="0 0 241 89.0508" fill="none" xmlns="http://www.w3.org/2000/svg" xmlns:xlink="http://www.w3.org/1999/xlink">
	<desc>
			Created with Pixso.
	</desc>
	<defs/>
	<path id="Форма 4" d="M118.44 89.05C117.04 89.05 115.68 88.7 114.35 88C113.01 87.3 112.06 86.16 111.49 84.58C111.42 84.39 111.49 84.25 111.67 84.14C111.86 84.05 112.01 84.16 112.14 84.49C112.77 85.7 113.58 86.58 114.55 87.14C115.55 87.71 116.59 88 117.67 88C117.92 88 118.18 87.98 118.46 87.95C118.76 87.92 119.04 87.87 119.3 87.81C121.45 87.3 123.15 86.03 124.39 84C125.63 81.97 126.52 79.59 127.04 76.86C127.59 74.13 127.92 71.39 128.04 68.63C128.18 65.87 128.21 63.5 128.14 61.53C126.37 62.54 124.55 63.43 122.67 64.21C120.8 64.97 118.84 65.59 116.81 66.09C115.87 66.35 114.77 66.56 113.53 66.72C112.29 66.87 110.97 66.95 109.58 66.95C107.1 66.95 104.66 66.49 102.28 65.58C99.9 64.65 98.27 62.88 97.37 60.28C97.12 59.66 96.96 59.01 96.9 58.35C96.84 57.66 96.81 57.01 96.81 56.39C96.81 54.55 97.08 52.75 97.62 51C98.17 49.25 98.75 47.67 99.37 46.28C97.91 45.39 96.62 44.31 95.51 43.04C94.41 41.77 93.57 40.31 93 38.67C92.75 37.91 92.55 37.15 92.41 36.39C92.29 35.62 92.23 34.88 92.23 34.18C92.23 31.33 93.02 28.72 94.6 26.34C96.2 23.96 98.17 21.94 100.51 20.3C102.86 18.64 105.19 17.55 107.48 17.04C107.73 16.98 108.31 16.89 109.23 16.76C110.16 16.62 111.04 16.55 111.86 16.55C112.88 16.55 113.42 16.69 113.49 16.95C113.61 17.2 113.51 17.32 113.18 17.32C112.3 17.32 111.45 17.32 110.62 17.32C109.8 17.32 108.94 17.41 108.04 17.6C105.89 18.11 103.78 19.12 101.72 20.62C99.65 22.11 97.94 23.93 96.58 26.09C95.21 28.24 94.53 30.62 94.53 33.23C94.53 33.93 94.59 34.64 94.72 35.37C94.84 36.1 95.03 36.85 95.27 37.62C96.24 40.29 97.96 42.48 100.44 44.18C102.53 40.18 104.84 36.68 107.37 33.67C109.91 30.65 112.58 27.76 115.37 25C118.18 22.24 121 19.3 123.86 16.18C123.86 15.61 123.84 15 123.81 14.37C123.78 13.73 123.76 13.1 123.76 12.46C123.76 10.94 123.84 9.41 124 7.86C124.17 6.29 124.5 4.94 125 3.81C125.38 2.97 125.88 2.13 126.49 1.27C127.09 0.42 127.87 0 128.81 0C129.45 0 129.98 0.2 130.42 0.62C130.87 1.03 131.22 1.54 131.49 2.18C131.73 2.75 131.86 3.45 131.86 4.27C131.86 5.67 131.49 7.06 130.77 8.46C130.04 9.86 129.19 11.14 128.23 12.32C127.28 13.5 126.43 14.53 125.67 15.41C125.67 18.02 125.87 20.67 126.28 23.37C126.7 26.07 127.1 28.72 127.49 31.32C128.94 29.49 130.67 27.77 132.67 26.16C134.67 24.53 136.85 23.43 139.21 22.86C139.97 22.66 140.79 22.55 141.67 22.55C142.94 22.55 144.17 22.86 145.35 23.46C146.53 24.07 147.39 25.2 147.95 26.86C148.34 28 148.53 29.28 148.53 30.67C148.53 32.31 148.31 34.01 147.86 35.76C147.42 37.5 146.98 39 146.53 40.28C145.08 44.21 143.08 47.76 140.53 50.9C137.99 54.05 135.04 56.73 131.67 58.95C131.73 59.97 131.8 61.03 131.86 62.11C131.92 63.18 131.95 64.26 131.95 65.35C131.95 68.65 131.65 71.97 131.04 75.3C130.44 78.63 129.35 81.52 127.76 83.95C126.18 86.4 123.83 88.01 120.72 88.77C120.08 88.95 119.32 89.05 118.44 89.05ZM125.67 14.09C126.12 13.58 126.71 12.7 127.44 11.46C128.17 10.22 128.82 8.9 129.39 7.51C129.97 6.11 130.25 4.97 130.25 4.09C130.25 3.7 130.21 3.44 130.14 3.32C130.08 3.13 129.98 2.95 129.86 2.76C129.73 2.56 129.55 2.46 129.3 2.46C128.91 2.46 128.51 2.73 128.09 3.27C127.69 3.82 127.42 4.27 127.3 4.65C126.73 5.86 126.32 7.4 126.09 9.27C125.87 11.15 125.73 12.75 125.67 14.09ZM106.9 46.28C109 46.28 111.01 45.79 112.95 44.81C114.89 43.82 116.68 42.59 118.32 41.14C119.98 39.68 121.43 38.27 122.67 36.9C123.91 35.54 124.85 34.48 125.49 33.72C125.16 30.99 124.85 28.28 124.56 25.58C124.28 22.86 124.04 20.14 123.86 17.41C122.34 19.07 120.78 20.7 119.18 22.3C117.6 23.88 116.08 25.52 114.62 27.23C112.97 29.14 111.42 31.15 110 33.28C108.57 35.4 107.25 37.61 106.04 39.9C105.53 40.79 105.05 41.71 104.6 42.67C104.17 43.62 103.72 44.6 103.28 45.62C104.42 46.06 105.63 46.28 106.9 46.28ZM131.39 57.53C134.37 55.63 136.98 53.38 139.23 50.81C141.49 48.24 143.26 45.21 144.53 41.72C145.11 40.12 145.52 38.67 145.77 37.37C146.03 36.07 146.16 34.88 146.16 33.81C146.16 31.27 145.56 29.36 144.35 28.09C143.14 26.82 141.58 26.18 139.67 26.18C137.95 26.18 136.04 26.71 133.95 27.76C131.86 28.8 129.77 30.37 127.67 32.46C128.31 36.66 129.02 40.86 129.81 45.04C130.6 49.23 131.13 53.39 131.39 57.53ZM113.09 64.18C114.18 64.18 115.24 64.11 116.28 63.95C117.33 63.8 118.27 63.63 119.09 63.44C122.27 62.66 125.22 61.52 127.95 60C127.89 55.81 127.62 51.61 127.14 47.39C126.67 43.16 126.18 38.92 125.67 34.67C124.97 35.87 123.99 37.25 122.72 38.81C121.45 40.36 119.95 41.85 118.23 43.28C116.52 44.7 114.67 45.9 112.67 46.86C110.67 47.8 108.59 48.28 106.44 48.28C105.17 48.28 103.9 48.09 102.62 47.72C102.36 48.6 102.12 49.59 101.9 50.67C101.69 51.74 101.58 52.82 101.58 53.9C101.58 55.24 101.76 56.57 102.14 57.9C103.03 60.32 104.55 61.97 106.67 62.86C108.79 63.74 110.93 64.18 113.09 64.18Z" fill="#FFA55C" fill-opacity="1.000000" fill-rule="nonzero"/>
	<path id="Форма 4" d="M10.61 68.2C9.32 68.2 8.2 67.72 7.25 66.77C6.3 65.83 5.62 64.29 5.22 62.18C5.17 62.01 5.15 61.81 5.15 61.58C5.15 61.33 5.15 61.08 5.15 60.83C5.15 59.77 5.24 58.43 5.44 56.8C5.65 55.18 5.9 53.39 6.19 51.44C6.49 49.48 6.78 47.47 7.05 45.4C7.33 43.32 7.56 41.29 7.76 39.3C7.97 37.31 8.07 35.5 8.07 33.87C8.07 31.84 7.87 30.2 7.47 28.95C7.06 27.7 6.34 27.07 5.29 27.07C4.65 27.07 4.01 27.31 3.39 27.78C2.77 28.24 2.22 28.75 1.75 29.32C1.27 29.87 0.9 30.32 0.62 30.66C0.35 30.99 0.19 31.05 0.14 30.82C0.09 30.7 0.06 30.58 0.03 30.47C0.01 30.35 0 30.23 0 30.1C0 29.49 0.21 28.85 0.65 28.18C1.1 27.5 1.72 26.93 2.52 26.47C3.32 26 4.22 25.77 5.22 25.77C5.43 25.77 5.6 25.77 5.75 25.79C5.9 25.8 6.05 25.83 6.21 25.87C8.14 26.19 9.46 27.22 10.15 28.95C10.86 30.68 11.21 32.78 11.21 35.25C11.21 37.12 11.07 39.09 10.79 41.18C10.52 43.26 10.23 45.36 9.9 47.47C9.58 49.57 9.28 51.57 9 53.47C8.73 55.35 8.6 57.02 8.6 58.47C8.6 58.89 8.61 59.28 8.64 59.65C8.66 60.02 8.7 60.36 8.75 60.68C9.15 62.71 9.7 64.12 10.39 64.94C11.08 65.76 11.88 66.17 12.78 66.17C13.78 66.17 14.82 65.82 15.89 65.12C16.96 64.41 18.02 63.53 19.07 62.47C20.11 61.41 21.06 60.34 21.92 59.29C23.06 57.91 24.11 56.29 25.06 54.43C26.01 52.56 26.87 50.67 27.63 48.74C28.41 46.81 29.02 45.05 29.46 43.45C28.96 42.9 28.66 42.34 28.57 41.77C28.47 41.19 28.42 40.45 28.42 39.54C28.42 38.58 28.69 37.83 29.24 37.29C29.79 36.74 30.36 36.46 30.96 36.46C31.86 36.46 32.46 36.95 32.77 37.91C33.32 39.51 33.86 41.2 34.41 42.99C34.96 44.77 35.57 46.51 36.24 48.21C36.91 49.91 37.69 51.49 38.6 52.94C40.45 55.79 42.15 57.83 43.69 59.07C45.24 60.3 46.66 60.92 47.95 60.92C49.3 60.92 50.49 60.37 51.51 59.26C52.53 58.16 53.39 56.7 54.09 54.89C54.78 53.07 55.3 51.09 55.66 48.96C56.01 46.82 56.19 44.73 56.19 42.67C56.19 40.97 56.07 39.38 55.84 37.91C55.62 36.43 55.24 35.22 54.69 34.29C54.48 33.91 54.33 33.51 54.23 33.09C54.14 32.67 54.09 32.29 54.09 31.94C54.09 31.48 54.17 31.1 54.34 30.77C54.53 30.45 54.79 30.29 55.13 30.29C55.53 30.29 55.93 30.49 56.33 30.88C56.88 31.33 57.39 31.95 57.87 32.74C58.34 33.52 58.75 34.2 59.09 34.77C59.49 35.41 60.02 36.19 60.66 37.11C61.32 38.03 62.01 38.86 62.73 39.62C63.45 40.37 64.16 40.83 64.87 40.99C64.96 41.02 65.01 41.08 65.01 41.18C65.01 41.37 64.79 41.54 64.34 41.66C63.88 41.79 63.56 41.83 63.37 41.8C62.22 41.45 61.26 41.07 60.48 40.67C59.71 40.27 58.83 39.53 57.83 38.44C57.88 39.01 57.9 39.6 57.9 40.19C57.9 40.79 57.9 41.37 57.9 41.96C57.9 43.62 57.81 45.29 57.63 46.96C57.46 48.63 57.13 50.32 56.63 52.02C55.53 55.71 54.15 58.34 52.48 59.92C50.81 61.49 49.05 62.27 47.2 62.27C45.7 62.27 44.22 61.85 42.74 61C41.28 60.15 39.92 59.01 38.67 57.6C37.43 56.19 36.35 54.62 35.45 52.88C34.66 51.21 33.99 49.68 33.43 48.28C32.88 46.89 32.46 45.66 32.16 44.6C31.36 46.91 30.32 49.21 29.04 51.49C27.77 53.76 26.37 55.9 24.82 57.91C23.27 59.92 21.67 61.69 20 63.24C18.33 64.78 16.69 65.99 15.07 66.87C13.45 67.75 11.96 68.2 10.61 68.2Z" fill="#1F1711" fill-opacity="1.000000" fill-rule="nonzero"/>
	<path id="Форма 4" d="M64.34 62.32C63.44 62.32 62.79 62.07 62.39 61.58C62 61.08 61.8 60.49 61.8 59.81C61.8 58.95 62.03 57.95 62.5 56.79C62.97 55.63 63.6 54.43 64.4 53.2C65.2 51.96 66.11 50.82 67.14 49.77C68.16 48.73 69.24 47.88 70.39 47.22C71.54 46.56 72.67 46.23 73.77 46.23C74.77 46.23 75.62 46.52 76.34 47.08C77.07 47.65 77.44 48.28 77.44 48.99C77.44 49.4 77.33 49.75 77.13 50.02C76.93 50.29 76.71 50.43 76.45 50.43C76.26 50.43 76.09 50.33 75.94 50.14C75.44 49.4 74.91 48.87 74.33 48.55C73.76 48.23 73.17 48.07 72.56 48.07C71.56 48.07 70.58 48.43 69.6 49.15C68.64 49.87 67.86 50.7 67.26 51.63C66.76 52.34 66.3 53.18 65.87 54.16C65.45 55.14 65.1 56.1 64.82 57.05C64.55 58 64.41 58.78 64.41 59.38C64.41 60.48 64.81 61.03 65.6 61.03C66.6 61.03 67.87 60.32 69.42 58.9C70.58 57.87 71.61 56.68 72.52 55.33C73.45 53.99 74.24 52.81 74.88 51.82C75.14 51.5 75.41 51.29 75.7 51.2C76.01 51.1 76.29 51.06 76.54 51.06C77.14 51.06 77.52 51.22 77.69 51.54C77.86 51.86 77.95 52.13 77.95 52.35C77.95 53.19 77.82 53.94 77.57 54.59C77.32 55.25 77.2 56.05 77.2 56.98C77.2 57.66 77.29 58.27 77.46 58.84C77.64 59.4 77.96 59.67 78.41 59.67C78.95 59.67 79.66 59.22 80.51 58.32C80.7 58.06 81 57.93 81.4 57.93C81.85 57.93 82.08 58.08 82.08 58.37C82.08 58.79 81.63 59.23 80.73 59.7C79.83 60.16 78.92 60.39 78.02 60.39C76.83 60.39 75.98 60.07 75.48 59.43C74.64 58.37 74.22 57.42 74.22 56.57C74.22 55.71 74.19 55.13 74.13 54.81C73.89 55.19 73.41 55.79 72.71 56.62C72.01 57.43 71.19 58.28 70.24 59.17C69.3 60.05 68.31 60.8 67.26 61.41C66.22 62.02 65.24 62.32 64.34 62.32Z" fill="#1F1711" fill-opacity="1.000000" fill-rule="nonzero"/>
	<path id="Форма 4" d="M77.95 69.69C77.46 69.69 77.05 69.59 76.73 69.4C76.4 69.21 76.36 68.99 76.6 68.73C77.31 68.05 77.97 67.1 78.59 65.86C79.22 64.63 79.76 63.34 80.24 61.99C80.71 60.64 81.11 59.41 81.43 58.31C81.75 57.2 81.99 56.42 82.14 55.97C81.25 55.42 80.8 54.81 80.8 54.14C80.8 53.62 80.99 53.18 81.35 52.83C81.73 52.48 82.02 52.32 82.23 52.35C82.33 52.35 82.46 52.38 82.63 52.43C82.8 52.48 82.89 52.53 82.89 52.6C83.19 51.08 83.44 49.58 83.64 48.09C83.84 46.6 83.95 45.22 83.95 43.98C83.95 42.95 83.87 42.04 83.71 41.24C83.56 40.43 83.34 39.78 83.05 39.3C82.75 38.82 82.59 38.45 82.59 38.19C82.59 37.84 82.75 37.66 83.05 37.66C83.39 37.66 83.67 37.81 83.87 38.1C84.42 38.8 84.83 39.91 85.1 41.43C85.38 42.93 85.52 44.65 85.52 46.58C85.52 47.89 85.46 49.28 85.35 50.75C85.26 52.21 85.09 53.66 84.84 55.1C85.74 54.58 86.66 54.08 87.6 53.58C88.55 53.08 89.38 52.56 90.08 52.02L90.08 51.97C90.08 51.9 90.04 51.83 89.96 51.77C89.88 51.71 89.85 51.62 89.85 51.49C89.85 51.26 90.1 50.99 90.6 50.67C91.1 50.35 91.75 49.89 92.57 49.29C93.4 48.7 94.26 48.15 95.16 47.66C96.06 47.16 96.89 46.93 97.63 46.96C98.23 46.96 98.52 47.09 98.52 47.34C98.52 47.63 98.1 48.07 97.25 48.65C96.41 49.22 95.4 49.84 94.23 50.48C93.06 51.12 91.99 51.71 91.02 52.24C90.04 52.77 89.4 53.12 89.1 53.31L86.27 55.33L84.77 56.35C85.41 57.4 86.16 58.45 87 59.49C87.85 60.51 88.81 61.36 89.88 62.04C90.96 62.71 92.07 63.05 93.23 63.05C94.42 63.05 95.64 62.58 96.88 61.65C97.73 60.97 98.46 60.22 99.05 59.39C99.65 58.55 100.15 57.93 100.55 57.51C100.81 57.19 101.06 56.97 101.3 56.86C101.56 56.75 101.76 56.69 101.9 56.69C102.25 56.69 102.37 56.85 102.27 57.17C102.07 57.58 101.73 58.11 101.23 58.76C100.73 59.4 100.24 60 99.77 60.57C99.29 61.12 98.93 61.52 98.69 61.74C97.74 62.64 96.79 63.3 95.84 63.72C94.89 64.13 93.96 64.34 93.06 64.34C91.92 64.34 90.8 64.07 89.7 63.52C88.6 62.98 87.59 62.28 86.67 61.41C85.74 60.54 84.91 59.63 84.17 58.66C83.62 61.1 82.94 63.29 82.14 65.23C81.35 67.18 80.48 68.52 79.53 69.25C79.08 69.54 78.55 69.69 77.95 69.69Z" fill="#1F1711" fill-opacity="1.000000" fill-rule="nonzero"/>
	<path id="Форма 4" d="M107.44 63.33C105.65 63.33 104.09 62.65 102.76 61.28C101.43 59.92 100.77 57.76 100.77 54.81C100.77 52.88 101.14 51.33 101.88 50.16C102.64 48.99 103.56 48.13 104.66 47.59C105.77 47.04 106.82 46.76 107.82 46.76C108.81 46.76 109.65 46.98 110.34 47.42C111.05 47.85 111.4 48.47 111.4 49.27C111.4 50.04 111.05 50.86 110.34 51.71C109.65 52.56 108.81 53.33 107.84 54.02C106.88 54.71 105.92 55.16 104.97 55.38C104.76 55.45 104.51 55.49 104.22 55.49C104.03 55.49 103.93 55.44 103.93 55.33C103.93 55.08 104.33 54.8 105.12 54.48C106.12 54.02 107.06 53.34 107.95 52.43C108.85 51.51 109.3 50.7 109.3 50C109.3 49.57 109.15 49.25 108.84 49.01C108.55 48.77 108.21 48.65 107.82 48.65C107.07 48.65 106.25 49.02 105.37 49.77C104.51 50.53 103.88 51.82 103.47 53.65C103.38 54.16 103.28 54.65 103.2 55.12C103.13 55.59 103.09 56.04 103.09 56.5C103.09 58.29 103.52 59.7 104.37 60.71C105.22 61.72 106.34 62.22 107.73 62.22C108.94 62.22 110.28 61.77 111.77 60.86C113.26 59.94 114.74 58.51 116.19 56.55C116.54 56.03 116.94 55.77 117.39 55.77C117.69 55.77 117.83 55.9 117.83 56.16C117.83 56.38 117.73 56.62 117.54 56.87C116.25 58.94 114.68 60.53 112.83 61.65C110.98 62.77 109.18 63.33 107.44 63.33Z" fill="#1F1711" fill-opacity="1.000000" fill-rule="nonzero"/>
	<path id="Форма 4" d="M156.3 80.77C154 80.77 151.79 80.15 149.67 78.93C147.55 77.72 145.78 75.95 144.36 73.64C142.94 71.33 142.11 68.53 141.85 65.26C140.31 65.35 138.89 65.4 137.6 65.4C134.7 65.4 132.59 65.16 131.26 64.67C129.94 64.19 129.28 63.57 129.28 62.8C129.28 62.03 129.86 61.18 131 60.25C132.15 59.32 133.74 58.38 135.79 57.44C137.84 56.49 140.23 55.63 142.99 54.85C143.92 51.58 145.45 48.05 147.57 44.25C149.7 40.44 152.57 36.4 156.16 32.13C156.5 31.71 157.02 31.5 157.73 31.5C158.17 31.5 158.56 31.6 158.92 31.8C159.27 31.99 159.45 32.24 159.45 32.56C159.45 32.72 159.37 32.93 159.21 33.18C156.02 37.33 153.36 41.13 151.24 44.58C149.12 48.03 147.47 51.18 146.28 54.04C148.52 53.49 150.91 53.04 153.45 52.69C156 52.34 158.59 52.13 161.24 52.07C161.93 52.07 162.28 52.13 162.28 52.25C162.28 52.39 162.04 52.51 161.57 52.62C161.1 52.73 160.32 52.8 159.21 52.83C156.77 52.93 154.44 53.15 152.21 53.49C150 53.83 147.91 54.23 145.96 54.71C145.22 56.58 144.65 58.31 144.25 59.9C143.86 61.48 143.61 62.95 143.5 64.29C148.64 63.59 153.31 62.55 157.53 61.19C161.74 59.83 165.47 58.25 168.71 56.45C171.96 54.65 174.68 52.78 176.87 50.86C178.27 49.64 179.29 48.56 179.91 47.61C180.53 46.66 180.84 45.83 180.84 45.13C180.84 44.1 180.34 43.29 179.34 42.7C178.34 42.1 177.02 41.67 175.38 41.4C173.73 41.13 171.94 40.99 169.99 40.99C167.94 40.99 165.87 41.11 163.78 41.36C161.68 41.59 159.79 41.92 158.09 42.33C157.69 42.4 157.42 42.44 157.27 42.44C156.63 42.44 156.3 42.29 156.3 42C156.3 41.71 156.58 41.49 157.13 41.32C163.26 39.08 167.63 37.04 170.22 35.22C172.82 33.38 174.12 31.84 174.12 30.59C174.12 29.5 173.33 28.65 171.76 28.06C170.19 27.46 168.13 27.16 165.58 27.16C163.59 27.16 161.34 27.38 158.84 27.8C156.35 28.21 153.78 28.88 151.13 29.81C148.94 30.59 146.96 31.5 145.18 32.54C143.41 33.58 141.92 34.66 140.69 35.77C139.47 36.88 138.56 37.92 137.96 38.9C137.37 39.87 137.14 40.69 137.29 41.37C137.29 41.44 137.3 41.51 137.32 41.59C137.35 41.67 137.36 41.74 137.36 41.8C137.36 42.61 136.99 43.01 136.25 43.01C135.89 43.01 135.53 42.85 135.15 42.53C134.78 42.21 134.6 41.73 134.6 41.08C134.6 40.12 135.06 39.09 135.97 38C136.9 36.91 138.14 35.81 139.72 34.7C141.29 33.6 143.05 32.55 145 31.57C146.94 30.59 148.97 29.75 151.06 29.05C153.75 28.11 156.41 27.42 159.03 26.98C161.64 26.52 164.06 26.29 166.26 26.29C169.29 26.29 171.76 26.68 173.66 27.46C175.56 28.23 176.51 29.3 176.51 30.68C176.51 31.97 175.53 33.46 173.59 35.16C171.64 36.86 168.37 38.74 163.78 40.79C165.32 40.63 166.77 40.52 168.11 40.44C169.46 40.35 170.71 40.31 171.87 40.31C176.16 40.31 179.26 40.77 181.17 41.68C183.09 42.6 184.05 43.78 184.05 45.22C184.05 46.28 183.59 47.43 182.67 48.67C181.75 49.91 180.47 51.18 178.83 52.5C176.43 54.39 173.42 56.22 169.8 57.99C166.19 59.76 162.14 61.28 157.67 62.57C153.22 63.85 148.47 64.72 143.42 65.16C143.33 68.02 143.74 70.38 144.67 72.24C145.59 74.11 146.77 75.56 148.21 76.6C149.66 77.65 151.11 78.38 152.56 78.81C154.01 79.25 155.21 79.46 156.16 79.46C156.85 79.46 157.32 79.38 157.56 79.23C157.77 79.06 158.08 78.98 158.48 78.98C158.87 78.98 159.24 79.08 159.59 79.27C159.95 79.47 160.12 79.68 160.12 79.9C160.12 80.09 159.95 80.24 159.59 80.33C158.5 80.62 157.4 80.77 156.3 80.77ZM137.89 64.78C138.44 64.78 139.03 64.75 139.68 64.71C140.34 64.66 141.04 64.6 141.78 64.54C141.73 63.19 141.78 61.78 141.93 60.31C142.09 58.83 142.36 57.28 142.75 55.68C139.56 56.73 137.04 57.91 135.19 59.21C133.35 60.52 132.43 61.66 132.43 62.66C132.43 63.27 132.88 63.78 133.78 64.18C134.68 64.58 136.05 64.78 137.89 64.78Z" fill="#1F1711" fill-opacity="1.000000" fill-rule="nonzero"/>
	<path id="Форма 4" d="M187.5 62.32C186.6 62.32 185.95 62.07 185.55 61.58C185.16 61.08 184.97 60.49 184.97 59.81C184.97 58.95 185.2 57.95 185.66 56.79C186.13 55.63 186.77 54.43 187.56 53.2C188.36 51.96 189.28 50.82 190.3 49.77C191.32 48.73 192.41 47.88 193.55 47.22C194.71 46.56 195.83 46.23 196.93 46.23C197.93 46.23 198.79 46.52 199.51 47.08C200.24 47.65 200.6 48.28 200.6 48.99C200.6 49.4 200.5 49.75 200.29 50.02C200.1 50.29 199.87 50.43 199.62 50.43C199.42 50.43 199.25 50.33 199.1 50.14C198.61 49.4 198.07 48.87 197.5 48.55C196.92 48.23 196.33 48.07 195.73 48.07C194.73 48.07 193.74 48.43 192.77 49.15C191.8 49.87 191.02 50.7 190.43 51.63C189.93 52.34 189.47 53.18 189.04 54.16C188.61 55.14 188.26 56.1 187.98 57.05C187.71 58 187.58 58.78 187.58 59.38C187.58 60.48 187.97 61.03 188.77 61.03C189.76 61.03 191.04 60.32 192.58 58.9C193.74 57.87 194.78 56.68 195.69 55.33C196.61 53.99 197.4 52.81 198.05 51.82C198.3 51.5 198.57 51.29 198.87 51.2C199.17 51.1 199.45 51.06 199.71 51.06C200.3 51.06 200.69 51.22 200.86 51.54C201.03 51.86 201.11 52.13 201.11 52.35C201.11 53.19 200.99 53.94 200.73 54.59C200.49 55.25 200.37 56.05 200.37 56.98C200.37 57.66 200.45 58.27 200.62 58.84C200.8 59.4 201.12 59.67 201.57 59.67C202.12 59.67 202.82 59.22 203.67 58.32C203.87 58.06 204.17 57.93 204.57 57.93C205.02 57.93 205.24 58.08 205.24 58.37C205.24 58.79 204.79 59.23 203.89 59.7C202.99 60.16 202.09 60.39 201.19 60.39C199.99 60.39 199.15 60.07 198.65 59.43C197.81 58.37 197.39 57.42 197.39 56.57C197.39 55.71 197.36 55.13 197.3 54.81C197.05 55.19 196.58 55.79 195.87 56.62C195.18 57.43 194.36 58.28 193.41 59.17C192.47 60.05 191.47 60.8 190.43 61.41C189.38 62.02 188.41 62.32 187.5 62.32Z" fill="#1F1711" fill-opacity="1.000000" fill-rule="nonzero"/>
	<path id="Форма 4" d="M201.12 69.69C200.62 69.69 200.21 69.59 199.89 69.4C199.57 69.21 199.52 68.99 199.77 68.73C200.47 68.05 201.14 67.1 201.76 65.86C202.38 64.63 202.93 63.34 203.4 61.99C203.88 60.64 204.27 59.41 204.59 58.31C204.92 57.2 205.16 56.42 205.3 55.97C204.41 55.42 203.97 54.81 203.97 54.14C203.97 53.62 204.15 53.18 204.52 52.83C204.89 52.48 205.19 52.32 205.39 52.35C205.49 52.35 205.62 52.38 205.8 52.43C205.97 52.48 206.05 52.53 206.05 52.6C206.36 51.08 206.61 49.58 206.8 48.09C207.01 46.6 207.11 45.22 207.11 43.98C207.11 42.95 207.03 42.04 206.87 41.24C206.73 40.43 206.51 39.78 206.22 39.3C205.91 38.82 205.76 38.45 205.76 38.19C205.76 37.84 205.91 37.66 206.22 37.66C206.56 37.66 206.83 37.81 207.04 38.1C207.59 38.8 207.99 39.91 208.26 41.43C208.54 42.93 208.68 44.65 208.68 46.58C208.68 47.89 208.63 49.28 208.52 50.75C208.42 52.21 208.25 53.66 208.01 55.1C208.91 54.58 209.83 54.08 210.76 53.58C211.71 53.08 212.54 52.56 213.25 52.02L213.25 51.97C213.25 51.9 213.21 51.83 213.12 51.77C213.05 51.71 213.01 51.62 213.01 51.49C213.01 51.26 213.26 50.99 213.76 50.67C214.26 50.35 214.92 49.89 215.73 49.29C216.56 48.7 217.43 48.15 218.33 47.66C219.23 47.16 220.05 46.93 220.79 46.96C221.39 46.96 221.69 47.09 221.69 47.34C221.69 47.63 221.26 48.07 220.41 48.65C219.57 49.22 218.56 49.84 217.4 50.48C216.23 51.12 215.15 51.71 214.18 52.24C213.21 52.77 212.57 53.12 212.26 53.31L209.43 55.33L207.93 56.35C208.58 57.4 209.32 58.45 210.16 59.49C211.01 60.51 211.98 61.36 213.05 62.04C214.12 62.71 215.23 63.05 216.39 63.05C217.58 63.05 218.8 62.58 220.04 61.65C220.9 60.97 221.62 60.22 222.22 59.39C222.82 58.55 223.31 57.93 223.72 57.51C223.97 57.19 224.22 56.97 224.47 56.86C224.72 56.75 224.92 56.69 225.07 56.69C225.41 56.69 225.53 56.85 225.43 57.17C225.24 57.58 224.89 58.11 224.39 58.76C223.89 59.4 223.41 60 222.93 60.57C222.46 61.12 222.1 61.52 221.85 61.74C220.9 62.64 219.95 63.3 219 63.72C218.05 64.13 217.13 64.34 216.23 64.34C215.08 64.34 213.96 64.07 212.87 63.52C211.77 62.98 210.76 62.28 209.83 61.41C208.91 60.54 208.07 59.63 207.33 58.66C206.78 61.1 206.11 63.29 205.3 65.23C204.51 67.18 203.64 68.52 202.69 69.25C202.24 69.54 201.72 69.69 201.12 69.69Z" fill="#1F1711" fill-opacity="1.000000" fill-rule="nonzero"/>
	<path id="Форма 4" d="M230.6 63.33C228.81 63.33 227.25 62.65 225.92 61.28C224.6 59.92 223.93 57.76 223.93 54.81C223.93 52.88 224.3 51.33 225.05 50.16C225.8 48.99 226.73 48.13 227.82 47.59C228.93 47.04 229.99 46.76 230.98 46.76C231.97 46.76 232.81 46.98 233.51 47.42C234.21 47.85 234.57 48.47 234.57 49.27C234.57 50.04 234.21 50.86 233.51 51.71C232.81 52.56 231.98 53.33 231 54.02C230.04 54.71 229.08 55.16 228.13 55.38C227.93 55.45 227.68 55.49 227.39 55.49C227.19 55.49 227.09 55.44 227.09 55.33C227.09 55.08 227.49 54.8 228.28 54.48C229.28 54.02 230.22 53.34 231.11 52.43C232.01 51.51 232.46 50.7 232.46 50C232.46 49.57 232.31 49.25 232.01 49.01C231.72 48.77 231.37 48.65 230.98 48.65C230.23 48.65 229.41 49.02 228.54 49.77C227.67 50.53 227.04 51.82 226.64 53.65C226.54 54.16 226.45 54.65 226.36 55.12C226.29 55.59 226.25 56.04 226.25 56.5C226.25 58.29 226.68 59.7 227.53 60.71C228.38 61.72 229.5 62.22 230.89 62.22C232.1 62.22 233.44 61.77 234.93 60.86C236.43 59.94 237.9 58.51 239.35 56.55C239.7 56.03 240.11 55.77 240.56 55.77C240.85 55.77 241 55.9 241 56.16C241 56.38 240.9 56.62 240.7 56.87C239.41 58.94 237.84 60.53 235.99 61.65C234.14 62.77 232.34 63.33 230.6 63.33Z" fill="#1F1711" fill-opacity="1.000000" fill-rule="nonzero"/>
</svg>
